HIERARCHY
ROOT hip
{
  OFFSET 154.836 85.1548 -26.8158
  CHANNELS 6 Xposition Yposition Zposition Zrotation Xrotation Yrotation
  JOINT abdomen
  {
    OFFSET 0 20.6881 -0.73152
    CHANNELS 3 Zrotation Xrotation Yrotation
    JOINT chest
    {
      OFFSET 0 11.7043 -0.48768
      CHANNELS 3 Zrotation Xrotation Yrotation
      JOINT neck
      {
        OFFSET 0 22.1894 -2.19456
        CHANNELS 3 Zrotation Xrotation Yrotation
        JOINT head
        {
          OFFSET -0.24384 7.07133 1.2192
          CHANNELS 3 Zrotation Xrotation Yrotation
          JOINT leftEye
          {
            OFFSET 4.14528 8.04674 8.04672
            CHANNELS 3 Zrotation Xrotation Yrotation
            End Site
            {
              OFFSET 1 0 0
            }
          }
          JOINT rightEye
          {
            OFFSET -3.6576 8.04674 8.04672
            CHANNELS 3 Zrotation Xrotation Yrotation
            End Site
            {
              OFFSET 1 0 0
            }
          }
        }
      }
      JOINT rCollar
      {
        OFFSET -2.68224 19.2634 -4.8768
        CHANNELS 3 Zrotation Xrotation Yrotation
        JOINT rShldr
        {
          OFFSET -8.77824 -1.95073 1.46304
          CHANNELS 3 Zrotation Xrotation Yrotation
          JOINT rForeArm
          {
            OFFSET -28.1742 -1.7115 0.48768
            CHANNELS 3 Zrotation Xrotation Yrotation
            JOINT rHand
            {
              OFFSET -22.5879 0.773209 7.07136
              CHANNELS 3 Zrotation Xrotation Yrotation
              JOINT rThumb1
              {
                OFFSET -1.2192 -0.487915 3.41376
                CHANNELS 3 Zrotation Xrotation Yrotation
                JOINT rThumb2
                {
                  OFFSET -3.37035 -0.52449 3.41376
                  CHANNELS 3 Zrotation Xrotation Yrotation
                  End Site
                  {
                    OFFSET -1.78271 -1.18214 1.43049
                  }
                }
              }
              JOINT rIndex1
              {
                OFFSET -7.75947 0.938293 5.60832
                CHANNELS 3 Zrotation Xrotation Yrotation
                JOINT rIndex2
                {
                  OFFSET -2.54057 -0.884171 1.56538
                  CHANNELS 3 Zrotation Xrotation Yrotation
                  End Site
                  {
                    OFFSET -1.62519 -0.234802 1.16502
                  }
                }
              }
              JOINT rMid1
              {
                OFFSET -8.24714 1.18213 3.41376
                CHANNELS 3 Zrotation Xrotation Yrotation
                JOINT rMid2
                {
                  OFFSET -3.10165 -0.590103 1.0647
                  CHANNELS 3 Zrotation Xrotation Yrotation
                  End Site
                  {
                    OFFSET -2.48547 -0.328903 0.83742
                  }
                }
              }
              JOINT rRing1
              {
                OFFSET -8.82822 0.546677 1.51678
                CHANNELS 3 Zrotation Xrotation Yrotation
                JOINT rRing2
                {
                  OFFSET -2.60934 -0.819778 -0.0198488
                  CHANNELS 3 Zrotation Xrotation Yrotation
                  End Site
                  {
                    OFFSET -2.33842 -0.294052 0.168128
                  }
                }
              }
              JOINT rPinky1
              {
                OFFSET -8.27202 -0.0477905 -0.4584
                CHANNELS 3 Zrotation Xrotation Yrotation
                JOINT rPinky2
                {
                  OFFSET -1.82734 -0.647385 -0.700984
                  CHANNELS 3 Zrotation Xrotation Yrotation
                  End Site
                  {
                    OFFSET -1.69225 -0.51767 -0.607171
                  }
                }
              }
            }
          }
        }
      }
      JOINT lCollar
      {
        OFFSET 2.68224 19.2634 -4.8768
        CHANNELS 3 Zrotation Xrotation Yrotation
        JOINT lShldr
        {
          OFFSET 8.77824 -1.95073 1.46304
          CHANNELS 3 Zrotation Xrotation Yrotation
          JOINT lForeArm
          {
            OFFSET 28.1742 -1.7115 0.48768
            CHANNELS 3 Zrotation Xrotation Yrotation
            JOINT lHand
            {
              OFFSET 22.5879 0.773209 7.07136
              CHANNELS 3 Zrotation Xrotation Yrotation
              JOINT lThumb1
              {
                OFFSET 1.2192 -0.487915 3.41376
                CHANNELS 3 Zrotation Xrotation Yrotation
                JOINT lThumb2
                {
                  OFFSET 3.37035 -0.52449 3.41376
                  CHANNELS 3 Zrotation Xrotation Yrotation
                  End Site
                  {
                    OFFSET 1.78271 -1.18214 1.43049
                  }
                }
              }
              JOINT lIndex1
              {
                OFFSET 7.75947 0.938293 5.60832
                CHANNELS 3 Zrotation Xrotation Yrotation
                JOINT lIndex2
                {
                  OFFSET 2.54057 -0.884171 1.56538
                  CHANNELS 3 Zrotation Xrotation Yrotation
                  End Site
                  {
                    OFFSET 1.62519 -0.234802 1.16502
                  }
                }
              }
              JOINT lMid1
              {
                OFFSET 8.24714 1.18213 3.41376
                CHANNELS 3 Zrotation Xrotation Yrotation
                JOINT lMid2
                {
                  OFFSET 3.10165 -0.590103 1.0647
                  CHANNELS 3 Zrotation Xrotation Yrotation
                  End Site
                  {
                    OFFSET 2.48547 -0.328903 0.83742
                  }
                }
              }
              JOINT lRing1
              {
                OFFSET 8.82822 0.546677 1.51678
                CHANNELS 3 Zrotation Xrotation Yrotation
                JOINT lRing2
                {
                  OFFSET 2.60934 -0.819778 -0.0198488
                  CHANNELS 3 Zrotation Xrotation Yrotation
                  End Site
                  {
                    OFFSET 2.33842 -0.294052 0.168128
                  }
                }
              }
              JOINT lPinky1
              {
                OFFSET 8.27202 -0.0477905 -0.4584
                CHANNELS 3 Zrotation Xrotation Yrotation
                JOINT lPinky2
                {
                  OFFSET 1.82734 -0.647385 -0.700984
                  CHANNELS 3 Zrotation Xrotation Yrotation
                  End Site
                  {
                    OFFSET 1.69225 -0.51767 -0.607171
                  }
                }
              }
            }
          }
        }
      }
    }
  }
  JOINT rButtock
  {
    OFFSET -8.77824 4.35084 1.2192
    CHANNELS 3 Zrotation Xrotation Yrotation
    JOINT rThigh
    {
      OFFSET 0 -1.70687 -2.19456
      CHANNELS 3 Zrotation Xrotation Yrotation
      JOINT rShin
      {
        OFFSET 0 -36.8199 0.73152
        CHANNELS 3 Zrotation Xrotation Yrotation
        JOINT rFoot
        {
          OFFSET 0.73152 -45.1104 -5.12064
          CHANNELS 3 Zrotation Xrotation Yrotation
          End Site
          {
            OFFSET -1.1221 -3.69964 12.103
          }
        }
      }
    }
  }
  JOINT lButtock
  {
    OFFSET 8.77824 4.35084 1.2192
    CHANNELS 3 Zrotation Xrotation Yrotation
    JOINT lThigh
    {
      OFFSET 0 -1.70687 -2.19456
      CHANNELS 3 Zrotation Xrotation Yrotation
      JOINT lShin
      {
        OFFSET 0 -36.8199 0.73152
        CHANNELS 3 Zrotation Xrotation Yrotation
        JOINT lFoot
        {
          OFFSET -0.73152 -45.1104 -5.12064
          CHANNELS 3 Zrotation Xrotation Yrotation
          End Site
          {
            OFFSET 1.1221 -3.69964 12.103
          }
        }
      }
    }
  }
}
MOTION
Frames:	7
Frame Time:	0.00833333
169.272 85.1731 -7.62113 -0.389723 -0.00134232 0.00664154 0.512932 -0.00341813 0.0146932 0.141686 -0.00540197 0.0245503 7.79682e-015 -7.95139e-016 -6.21202e-017 2.3497e-014 3.18055e-015 -2.08103e-016 -0 0 0 -0 0 0 4.02419e-015 -5.82377e-019 1.49089e-016 8.42836e-014 -1.49089e-016 3.97569e-016 1.41937e-012 -4.24604e-013 -3.81667e-014 1.62084e-011 4.11733e-013 -1.33583e-013 3.8239e-011 -2.90436e-014 -3.33958e-013 6.60255e-011 -5.08889e-014 -5.79656e-013 3.82446e-011 -2.98177e-014 -3.435e-013 7.73091 5.47488 0.417314 3.82375e-011 -2.96189e-014 -3.30778e-013 2.90554 0.965183 0.102902 3.82381e-011 -2.97183e-014 -3.33163e-013 10.2786 0.731801 0.0259123 3.82271e-011 -2.62396e-014 -3.21236e-013 2.22167 -0.733487 -0.20892 3.92745e-015 7.76503e-019 -2.48481e-016 8.07617e-014 1.30452e-016 -1.19271e-015 1.41425e-012 4.25996e-013 -2.22639e-014 1.62185e-011 -4.19709e-013 -1.20861e-013 3.82529e-011 8.72537e-015 -3.27597e-013 6.60752e-011 1.27222e-014 -5.61368e-013 3.8247e-011 9.54166e-015 -3.18055e-013 -7.73091 5.47488 -0.417314 3.82536e-011 8.34896e-015 -3.27597e-013 -2.90554 0.965183 -0.102902 3.82412e-011 9.1441e-015 -3.26802e-013 -10.2786 0.731801 -0.0259123 3.82589e-011 1.07344e-014 -3.40319e-013 -2.22167 -0.733487 0.20892 -2.03217e-016 0 -3.88251e-019 0.86001 -4.41146 -0.0729706 -0.00213126 2.43941 -0.0112534 -0.474444 1.97258 0.093838 2.03217e-016 0 3.88251e-019 -0.0776898 -2.42095 0.0232543 0.0076678 -1.16603 0.0659996 0.465778 3.58744 -0.125216 
162.397 82.9423 -13.1823 -5.01169 7.0045 -20.7728 1.90248 3.5044 0.373039 0.225033 0.540455 0.209397 1.92911 1.86486 0.978062 -2.77323 -2.42576 1.34119 -0 0 0 -0 0 0 -8.00419e-016 -4.71187e-013 -1.89382e-013 21.893 7.27411 0.102228 -4.42333 -2.05161 6.86349 0.0425018 -4.57877 -0.636122 6.89164e-010 7.12893e-010 -5.62115e-011 1.19507e-009 1.23335e-009 -9.04284e-011 6.89172e-010 7.12892e-010 -5.6222e-011 7.73091 5.47488 0.417314 6.89163e-010 7.12893e-010 -5.621e-011 2.90554 0.965183 0.102902 6.89164e-010 7.12891e-010 -5.62106e-011 10.2786 0.731801 0.0259123 6.89154e-010 7.12895e-010 -5.62003e-011 2.22167 -0.733487 -0.20892 -8.66793e-016 -4.71186e-013 -1.89752e-013 -21.7493 8.23926 -1.17214 4.88012 -2.36689 -7.45307 -0.0214276 -3.25082 0.454227 6.82077e-010 -6.81833e-010 -8.53322e-010 1.18502e-009 -1.17979e-009 -1.47113e-009 6.82073e-010 -6.81831e-010 -8.53316e-010 -7.73091 5.47488 -0.417314 6.82078e-010 -6.81828e-010 -8.53325e-010 -2.90554 0.965183 -0.102902 6.82067e-010 -6.81831e-010 -8.53323e-010 -10.2786 0.731801 -0.0259123 6.82084e-010 -6.81826e-010 -8.53334e-010 -2.22167 -0.733487 0.20892 -2.03217e-016 0 -3.88251e-019 4.72838 -9.83561 2.14772 -0.0584458 11.445 0.0128351 -1.29878 -3.92859 -6.79706 2.03217e-016 0 3.88251e-019 1.64243 -4.93377 0.263715 0.0267559 16.7831 -0.162069 0.379107 4.57168 -0.0597153 
160.664 82.96 -13.1027 -4.78917 11.2642 -43.4377 3.29808 7.19062 0.736969 0.323679 1.12159 0.398454 3.91079 3.83085 2.02417 -5.61139 -4.98216 2.77977 -0 0 0 -0 0 0 -9.09361e-015 -1.01451e-012 -3.9924e-013 45.0218 14.9302 0.17563 -8.55303 -4.11026 14.1232 -0.0244241 -9.39784 -1.31952 1.43136e-009 1.51182e-009 -1.15587e-010 2.48227e-009 2.61552e-009 -1.8538e-010 1.43137e-009 1.51182e-009 -1.15598e-010 7.73091 5.47488 0.417314 1.43136e-009 1.51182e-009 -1.15587e-010 2.90554 0.965183 0.102902 1.43136e-009 1.51182e-009 -1.15586e-010 10.2786 0.731801 0.0259123 1.43135e-009 1.51182e-009 -1.15577e-010 2.22167 -0.733487 -0.20892 -9.12685e-015 -1.01451e-012 -3.99582e-013 -44.3623 16.9612 -2.53017 9.37565 -4.73561 -15.3727 0.0123965 -6.70242 0.941506 1.41858e-009 -1.4319e-009 -1.80828e-009 2.46484e-009 -2.47758e-009 -3.11738e-009 1.41858e-009 -1.4319e-009 -1.80828e-009 -7.73091 5.47488 -0.417314 1.41859e-009 -1.43189e-009 -1.80829e-009 -2.90554 0.965183 -0.102902 1.41858e-009 -1.4319e-009 -1.80828e-009 -10.2786 0.731801 -0.0259123 1.41859e-009 -1.43189e-009 -1.80829e-009 -2.22167 -0.733487 0.20892 -2.03217e-016 0 -3.88251e-019 9.26551 -15.6357 4.58943 -0.129102 20.9819 0.036841 -3.70391 -9.8655 -14.2471 2.03217e-016 0 3.88251e-019 3.47142 -7.40316 0.53705 0.232186 35.6492 -0.47652 0.28226 5.71365 -0.0692451 
158.919 82.9888 -12.9735 -2.17408 10.3857 -63.684 4.54801 10.5183 1.10623 0.381156 1.6321 0.579299 5.59566 5.58804 2.94665 -7.97695 -7.26128 4.05251 -0 0 0 -0 0 0 -1.04496e-014 -1.41356e-012 -5.68444e-013 65.5959 21.822 0.327699 -11.8243 -5.80229 20.688 -0.18508 -13.7294 -1.95825 1.99101e-009 2.13874e-009 -1.67967e-010 3.45316e-009 3.70015e-009 -2.70126e-010 1.99103e-009 2.13874e-009 -1.67979e-010 7.73091 5.47488 0.417314 1.99101e-009 2.13874e-009 -1.67968e-010 2.90554 0.965183 0.102902 1.99102e-009 2.13873e-009 -1.67966e-010 10.2786 0.731801 0.0259123 1.99101e-009 2.13874e-009 -1.67958e-010 2.22167 -0.733487 -0.20892 -1.04553e-014 -1.41356e-012 -5.6876e-013 -64.151 24.6742 -3.83029 12.8349 -6.62111 -22.4982 0.0922605 -9.74997 1.38043 1.96973e-009 -2.04552e-009 -2.55931e-009 3.42292e-009 -3.53941e-009 -4.41227e-009 1.96973e-009 -2.04551e-009 -2.55931e-009 -7.73091 5.47488 -0.417314 1.96973e-009 -2.0455e-009 -2.55932e-009 -2.90554 0.965183 -0.102902 1.96972e-009 -2.04551e-009 -2.55932e-009 -10.2786 0.731801 -0.0259123 1.96973e-009 -2.0455e-009 -2.55932e-009 -2.22167 -0.733487 0.20892 -2.03217e-016 0 -3.88251e-019 13.8004 -20.5654 6.93803 -0.19649 29.456 0.0691669 -7.22307 -14.7859 -21.2672 2.03217e-016 0 3.88251e-019 5.14683 -9.95871 0.753093 0.710928 52.6774 -0.985462 0.198974 6.54013 0.0718325 
157.138 82.9962 -12.8021 -0.451758 6.73217 -77.0398 5.5153 12.9509 1.47574 0.342732 1.96612 0.739424 6.67614 6.82971 3.54801 -9.40799 -8.86311 4.88259 -0 0 0 -0 0 0 5.53725e-015 -1.45192e-012 -6.36012e-013 79.7869 26.8025 0.677028 -13.9361 -6.90299 25.4256 -0.361327 -16.8487 -2.43937 2.09434e-009 2.33563e-009 -2.02859e-010 3.63327e-009 4.04089e-009 -3.29354e-010 2.09435e-009 2.33563e-009 -2.02872e-010 7.73091 5.47488 0.417314 2.09434e-009 2.33563e-009 -2.02862e-010 2.90554 0.965183 0.102902 2.09434e-009 2.33563e-009 -2.02858e-010 10.2786 0.731801 0.0259123 2.09434e-009 2.33563e-009 -2.02853e-010 2.22167 -0.733487 -0.20892 5.54535e-015 -1.45192e-012 -6.3631e-013 -77.7428 29.9122 -4.66257 14.9598 -7.75559 -27.5059 0.173575 -11.7898 1.68099 2.05746e-009 -2.318e-009 -2.80054e-009 3.57669e-009 -4.01132e-009 -4.82875e-009 2.05746e-009 -2.318e-009 -2.80054e-009 -7.73091 5.47488 -0.417314 2.05746e-009 -2.31799e-009 -2.80055e-009 -2.90554 0.965183 -0.102902 2.05745e-009 -2.318e-009 -2.80054e-009 -10.2786 0.731801 -0.0259123 2.05746e-009 -2.31799e-009 -2.80055e-009 -2.22167 -0.733487 0.20892 -2.03217e-016 0 -3.88251e-019 17.3247 -23.4297 8.7215 -0.243387 35.2732 0.117682 -10.5789 -18.0544 -26.5492 2.03217e-016 0 3.88251e-019 6.39125 -12.7304 0.819401 1.51962 65.1131 -1.79007 0.148326 6.57755 0.589617 
155.381 83.0223 -12.5317 -0.162496 4.68473 -82.0322 6.17954 14.1515 1.82574 0.169289 2.05356 0.87156 6.96151 7.37304 3.68692 -9.6318 -9.55291 5.06755 -0 0 0 -0 0 0 5.7956e-014 -8.58896e-013 -5.40115e-013 85.0289 29.127 1.31697 -14.833 -7.39701 27.5472 -0.454888 -18.2528 -2.66264 1.40263e-009 1.84785e-009 -1.45326e-010 2.43529e-009 3.19724e-009 -2.37164e-010 1.40264e-009 1.84785e-009 -1.45338e-010 7.73091 5.47488 0.417314 1.40263e-009 1.84786e-009 -1.4533e-010 2.90554 0.965183 0.102902 1.40263e-009 1.84785e-009 -1.45326e-010 10.2786 0.731801 0.0259123 1.40262e-009 1.84785e-009 -1.45322e-010 2.22167 -0.733487 -0.20892 5.79583e-014 -8.58895e-013 -5.4041e-013 -83.102 31.7609 -4.58557 15.7451 -8.16285 -29.5042 0.208456 -12.4883 1.78569 1.32521e-009 -2.02291e-009 -2.28718e-009 2.30803e-009 -3.50196e-009 -3.94586e-009 1.32521e-009 -2.02291e-009 -2.28718e-009 -7.73091 5.47488 -0.417314 1.32521e-009 -2.0229e-009 -2.28719e-009 -2.90554 0.965183 -0.102902 1.3252e-009 -2.02291e-009 -2.28718e-009 -10.2786 0.731801 -0.0259123 1.32522e-009 -2.02289e-009 -2.28719e-009 -2.22167 -0.733487 0.20892 -2.03217e-016 0 -3.88251e-019 18.9679 -23.5242 9.46965 -0.25215 37.4344 0.179031 -12.3872 -19.657 -28.9587 2.03217e-016 0 3.88251e-019 7.04252 -15.9184 0.697473 2.35248 71.4703 -2.62975 0.1722 5.52171 1.50584 
153.612 83.049 -12.186 -0.503564 5.11119 -81.6584 6.63805 14.4712 2.15825 -0.0991833 1.96488 0.983596 6.69299 7.41776 3.49336 -9.01793 -9.59269 4.78653 -0 0 0 -0 0 0 1.35819e-013 1.79105e-013 -3.28467e-013 83.9035 29.5496 2.15155 -14.961 -7.52919 27.7861 -0.461572 -18.4344 -2.69061 1.50467e-010 8.74956e-010 -2.50101e-011 2.65876e-010 1.51438e-009 -4.23262e-011 1.50476e-010 8.74955e-010 -2.50202e-011 7.73091 5.47488 0.417314 1.50467e-010 8.74957e-010 -2.50159e-011 2.90554 0.965183 0.102902 1.50472e-010 8.74955e-010 -2.50111e-011 10.2786 0.731801 0.0259123 1.50464e-010 8.74957e-010 -2.50103e-011 2.22167 -0.733487 -0.20892 1.35801e-013 1.79105e-013 -3.28768e-013 -82.6584 31.1893 -3.80363 15.6833 -8.13935 -29.3341 0.199196 -12.2259 1.74686 1.54129e-011 -1.32668e-009 -1.23678e-009 3.74498e-011 -2.29909e-009 -2.13818e-009 1.54098e-011 -1.32668e-009 -1.23677e-009 -7.73091 5.47488 -0.417314 1.54144e-011 -1.32667e-009 -1.23678e-009 -2.90554 0.965183 -0.102902 1.5407e-011 -1.32668e-009 -1.23678e-009 -10.2786 0.731801 -0.0259123 1.54196e-011 -1.32667e-009 -1.23679e-009 -2.22167 -0.733487 0.20892 -2.03217e-016 0 -3.88251e-019 19.1681 -21.6601 9.43914 -0.226339 36.9811 0.245022 -12.7572 -20.2888 -29.1886 2.03217e-016 0 3.88251e-019 7.2384 -19.3984 0.432616 2.73529 73.4737 -3.04247 0.311042 3.68458 2.70835 
